<svg id="svg" xmlns="http://www.w3.org/2000/svg" xmlns:xlink="http://www.w3.org/1999/xlink" width="400" height="400" viewBox="0, 0, 400,400"><g id="svgg"><path id="path0" d="M183.000 26.139 C 110.955 31.959,46.475 83.606,23.964 153.524 C 12.058 190.505,13.524 192.000,61.690 192.000 C 101.954 192.000,101.269 192.242,107.005 175.986 C 129.248 112.942,222.519 89.466,266.791 135.769 L 272.581 141.825 257.791 159.080 C 237.414 182.851,235.441 185.659,236.740 189.042 C 238.634 193.980,400.019 193.444,399.953 188.500 C 399.817 178.339,374.383 33.583,372.383 31.583 C 369.434 28.634,364.395 33.276,344.029 57.699 L 329.243 75.430 319.015 67.099 C 280.895 36.049,234.242 22.000,183.000 26.139 M17.979 232.478 C 17.899 242.223,43.033 387.542,45.201 389.866 C 48.611 393.521,50.076 392.233,72.125 366.206 L 88.758 346.572 98.986 354.902 C 195.458 433.480,345.516 395.037,389.717 280.421 C 408.127 232.683,406.349 230.000,356.310 230.000 C 315.080 230.000,318.717 228.316,307.352 252.665 C 279.624 312.072,193.606 330.573,151.224 286.246 L 145.449 280.206 163.224 259.014 C 189.029 228.250,195.376 231.092,99.500 230.478 C 34.979 230.064,17.996 230.481,17.979 232.478 " stroke="none" fill="#000000" fill-rule="evenodd"></path></g></svg>